<?xml version="1.0" encoding="utf-8"?>
<!-- Generator: Adobe Illustrator 19.1.0, SVG Export Plug-In . SVG Version: 6.00 Build 0)  -->
<svg version="1.1" id="Layer_1" xmlns="http://www.w3.org/2000/svg" xmlns:xlink="http://www.w3.org/1999/xlink" x="0px" y="0px"
	 viewBox="0 0 855.4 228.1" style="enable-background:new 0 0 855.4 228.1;" xml:space="preserve">
<style type="text/css">
	.st0{fill:#FFFFFF;}
	.st1{fill:none;stroke:#0B0C1B;stroke-width:5.7629;stroke-miterlimit:10;}
	.st2{fill:#BC2C40;}
	.st3{fill:none;stroke:#0B0C1B;stroke-width:4.6103;stroke-linejoin:round;stroke-miterlimit:10;}
</style>
<polygon class="st0" points="49.6,55 62.7,27.9 115,27.9 128.1,55 95.4,94.2 82.3,94.2 "/>
<polygon class="st0" points="128.1,81 113,99.2 149.4,114 133.5,200.3 44.3,200.3 28.3,114 64.7,99.2 49.6,81 51,78.4 126.7,78.4 
	"/>
<g>
	<path d="M217.7,151.7l-9.3,11.1v22.4h-25.1V52.6h25.1v76.7l30.1-37.1h29l-33,39.2l36.2,53.7h-30.1L217.7,151.7z"/>
	<path d="M314.6,90.4c7.3,0,15.4,2,24.4,9.5v-7.7h23.6v64.5c0,10.9,1.4,18.3,5,27.6l-24,1.8c-1.6-3.8-2.5-8.4-3.2-12.2
		c-7.7,8.6-18.3,13.1-28.3,13.1c-18.5,0-36.9-16.3-36.9-48.4C275.2,106.5,295.3,90.4,314.6,90.4z M320,165.5c5.9,0,12.4-3,17.6-8.1
		v-38.5c-5.9-5-11.3-7-16.5-7c-11.1,0-20.2,8.8-20.2,26.7C300.8,157,309.8,165.5,320,165.5z"/>
	<path d="M389.7,92.2h23.6v24.6c5.6-12.7,17.2-23.3,32.8-26.9l4.5,24.9c-14.5,2.3-27.6,13.9-35.8,24.3v46.1h-25.1V92.2z"/>
	<path d="M497.2,90.4c7.3,0,15.4,2,24.4,9.5v-7.7h23.6v64.5c0,10.9,1.4,18.3,5,27.6l-24,1.8c-1.6-3.8-2.5-8.4-3.2-12.2
		c-7.7,8.6-18.3,13.1-28.3,13.1c-18.5,0-36.9-16.3-36.9-48.4C457.7,106.5,477.8,90.4,497.2,90.4z M502.5,165.5
		c5.9,0,12.4-3,17.6-8.1v-38.5c-5.9-5-11.3-7-16.5-7c-11.1,0-20.2,8.8-20.2,26.7C483.4,157,492.3,165.5,502.5,165.5z"/>
	<path d="M578.7,113.7h-14.5V92.2h14.5v-9.1c0-18.6,9.5-32.2,28.8-32.2c5.7,0,12.4,1.1,20.1,3.6l-4.8,21c-4.1-1.4-7.2-2-9.9-2
		c-6.6,0-9.1,4.3-9.1,10.6v8.2h23.8v21.5h-23.8v71.5h-25.1V113.7z"/>
	<path d="M680.4,151.7l-9.3,11.1v22.4H646V52.6h25.1v76.7l30.1-37.1h29l-33,39.2l36.2,53.7h-30.1L680.4,151.7z"/>
	<path d="M777.3,90.4c7.3,0,15.4,2,24.4,9.5v-7.7h23.6v64.5c0,10.9,1.4,18.3,5,27.6l-24,1.8c-1.6-3.8-2.5-8.4-3.2-12.2
		c-7.7,8.6-18.3,13.1-28.3,13.1c-18.5,0-36.9-16.3-36.9-48.4C737.9,106.5,758,90.4,777.3,90.4z M782.7,165.5c5.9,0,12.4-3,17.6-8.1
		v-38.5c-5.9-5-11.3-7-16.5-7c-11.1,0-20.2,8.8-20.2,26.7C763.6,157,772.5,165.5,782.7,165.5z"/>
</g>
<polygon class="st1" points="49.6,55 62.7,27.9 115,27.9 128.1,55 95.4,94.2 82.3,94.2 "/>
<polygon class="st1" points="128.1,81 113,99.2 149.4,114 133.5,200.3 44.3,200.3 28.3,114 64.7,99.2 49.6,81 51,78.4 126.7,78.4 
	"/>
<g>
	<path class="st2" d="M131.6,126.4L120.8,185H56.9l-10.8-58.6C82.3,113.9,87.9,140.3,131.6,126.4z"/>
</g>
<polyline class="st3" points="62.7,27.9 75.8,55 88.9,27.9 101.9,55 115,27.9 "/>
<line class="st3" x1="75.8" y1="55" x2="82.3" y2="78.4"/>
<line class="st3" x1="101.9" y1="55" x2="95.4" y2="78.4"/>
<line class="st3" x1="128.1" y1="55" x2="49.6" y2="55"/>
</svg>
